<svg>
<symbol id="logo" width="199" height="44" viewBox="0 0 199 44" fill="pink" xmlns="http://www.w3.org/2000/svg">
    <path d="M9.93151 33.8969C9.07646 33.8969 8.42393 33.6659 7.9739 33.2039C7.52387 32.7419 7.29886 32.0819 7.29886 31.2238V21.6535L8.37892 24.5906L0.413461 13.5351C0.0984432 13.0731 -0.0365646 12.5781 0.00843799 12.0501C0.0534406 11.5001 0.278454 11.027 0.683477 10.631C1.0885 10.235 1.66228 10.037 2.40483 10.037C2.94486 10.037 3.42864 10.169 3.85616 10.433C4.30619 10.697 4.73371 11.1151 5.13874 11.6871L10.539 19.3104H9.45899L14.8593 11.6871C15.2868 11.0931 15.7031 10.675 16.1081 10.433C16.5356 10.169 17.0307 10.037 17.5932 10.037C18.3133 10.037 18.8758 10.224 19.2808 10.598C19.6858 10.95 19.8996 11.4011 19.9221 11.9511C19.9446 12.4791 19.7533 13.0291 19.3483 13.6011L11.4841 24.5906L12.5304 21.6535V31.2238C12.5304 33.0059 11.6641 33.8969 9.93151 33.8969Z" fill="#FF0000"/>
    <path d="M27.6141 33.9629C25.8365 33.9629 24.2839 33.6219 22.9563 32.9399C21.6513 32.2579 20.6387 31.2788 19.9187 30.0028C19.1986 28.7267 18.8386 27.2197 18.8386 25.4816C18.8386 24.1836 19.0411 23.0175 19.4461 21.9835C19.8512 20.9494 20.4362 20.0694 21.2012 19.3434C21.9888 18.5953 22.9226 18.0343 24.0027 17.6603C25.0827 17.2643 26.2865 17.0663 27.6141 17.0663C29.3917 17.0663 30.9331 17.4073 32.2381 18.0893C33.5657 18.7713 34.5895 19.7394 35.3096 20.9934C36.0521 22.2475 36.4234 23.7435 36.4234 25.4816C36.4234 26.8017 36.2096 27.9787 35.7821 29.0127C35.3771 30.0468 34.792 30.9378 34.027 31.6858C33.2619 32.4339 32.3281 33.0059 31.2256 33.4019C30.1455 33.7759 28.9417 33.9629 27.6141 33.9629ZM27.6141 30.2338C28.3567 30.2338 28.9979 30.0578 29.538 29.7058C30.078 29.3538 30.5055 28.8367 30.8205 28.1547C31.1356 27.4507 31.2931 26.5597 31.2931 25.4816C31.2931 23.8755 30.9556 22.6985 30.2805 21.9505C29.6055 21.1804 28.7167 20.7954 27.6141 20.7954C26.8941 20.7954 26.2528 20.9604 25.6902 21.2904C25.1502 21.6205 24.7227 22.1375 24.4077 22.8415C24.1152 23.5235 23.9689 24.4036 23.9689 25.4816C23.9689 27.0877 24.3064 28.2867 24.9815 29.0787C25.6565 29.8488 26.534 30.2338 27.6141 30.2338Z" fill="#FF0000"/>
    <path d="M45.6332 33.9629C44.2381 33.9629 43.0793 33.7099 42.1567 33.2039C41.2342 32.6979 40.5479 31.9389 40.0978 30.9268C39.6703 29.8928 39.4566 28.6167 39.4566 27.0987V19.6404C39.4566 18.8044 39.6703 18.1773 40.0978 17.7593C40.5479 17.3413 41.1779 17.1323 41.988 17.1323C42.798 17.1323 43.428 17.3413 43.8781 17.7593C44.3281 18.1773 44.5531 18.8044 44.5531 19.6404V27.2307C44.5531 28.1987 44.7556 28.9247 45.1606 29.4088C45.5657 29.8708 46.207 30.1018 47.0845 30.1018C48.0521 30.1018 48.8396 29.7718 49.4471 29.1117C50.0772 28.4297 50.3922 27.5387 50.3922 26.4386V19.6404C50.3922 18.8044 50.606 18.1773 51.0335 17.7593C51.4835 17.3413 52.1135 17.1323 52.9236 17.1323C53.7561 17.1323 54.3862 17.3413 54.8137 17.7593C55.2637 18.1773 55.4887 18.8044 55.4887 19.6404V31.3558C55.4887 33.0499 54.6674 33.8969 53.0248 33.8969C52.2148 33.8969 51.596 33.6769 51.1685 33.2369C50.741 32.7969 50.5272 32.1699 50.5272 31.3558V29.1448L51.0335 30.4318C50.5385 31.5538 49.8297 32.4229 48.9071 33.0389C47.9846 33.6549 46.8932 33.9629 45.6332 33.9629Z" fill="#FF0000"/>
    <path d="M62.0651 33.8969C61.21 33.8969 60.5575 33.6769 60.1075 33.2369C59.6575 32.7969 59.4324 32.1699 59.4324 31.3558V19.6404C59.4324 18.8264 59.6462 18.2103 60.0737 17.7923C60.5238 17.3523 61.1425 17.1323 61.9301 17.1323C62.7401 17.1323 63.3589 17.3523 63.7864 17.7923C64.214 18.2103 64.4277 18.8264 64.4277 19.6404V21.3564H64.0902C64.3602 20.0364 64.9565 19.0134 65.8791 18.2873C66.8016 17.5613 67.9942 17.1543 69.4568 17.0663C70.0193 17.0223 70.4468 17.1653 70.7393 17.4953C71.0544 17.8033 71.2231 18.3203 71.2456 19.0464C71.2906 19.7284 71.1444 20.2674 70.8069 20.6634C70.4918 21.0594 69.9518 21.3014 69.1868 21.3894L68.4105 21.4555C67.1279 21.5655 66.1716 21.9285 65.5415 22.5445C64.934 23.1605 64.6302 24.0516 64.6302 25.2176V31.3558C64.6302 32.1699 64.4052 32.7969 63.9552 33.2369C63.5277 33.6769 62.8976 33.8969 62.0651 33.8969Z" fill="#FF0000"/>
    <path d="M86.4741 34.029C84.4715 34.029 82.9751 33.49 81.9851 32.4119C80.995 31.3119 80.5 29.6838 80.5 27.5277V12.6442C80.5 11.8081 80.7138 11.1811 81.1413 10.7631C81.5913 10.3231 82.2326 10.1031 83.0652 10.1031C83.8752 10.1031 84.494 10.3231 84.9215 10.7631C85.3715 11.1811 85.5965 11.8081 85.5965 12.6442V15.066V18.3534V22.2805V27.3297C85.5965 28.2318 85.7878 28.9028 86.1703 29.3428C86.5754 29.7608 87.1041 29.9698 87.7567 29.9698C87.9367 29.9698 88.1054 29.9588 88.263 29.9368C88.4205 29.9148 88.5892 29.9038 88.7692 29.9038C89.1292 29.8598 89.3768 29.9698 89.5118 30.2338C89.6693 30.4758 89.748 30.9709 89.748 31.7189C89.748 32.3789 89.613 32.8849 89.343 33.2369C89.073 33.567 88.6567 33.787 88.0942 33.897C87.8692 33.919 87.6104 33.941 87.3179 33.963C87.0254 34.007 86.7441 34.029 86.4741 34.029Z" fill="#FF0000"/>
    <path d="M94.248 18.3534H85.5965V22.2805H94.248V18.3534Z" fill="#FF0000"/>
    <path d="M84.9215 10.7631C85.3715 11.1811 85.5965 11.8081 85.5965 12.6442V15.066H94.248V10.7631H84.9215Z" fill="#FF0000"/>
    <path d="M103.791 33.9629C101.789 33.9629 100.292 33.4239 99.3022 32.3459C98.3121 31.2458 97.8171 29.6178 97.8171 27.4617V12.5781C97.8171 11.7421 98.0309 11.1151 98.4584 10.697C98.9084 10.257 99.5497 10.037 100.382 10.037C101.192 10.037 101.811 10.257 102.239 10.697C102.689 11.1151 102.914 11.7421 102.914 12.5781V27.2637C102.914 28.1657 103.105 28.8367 103.487 29.2768C103.892 29.6948 104.421 29.9038 105.074 29.9038C105.254 29.9038 105.423 29.8928 105.58 29.8708C105.738 29.8488 105.906 29.8378 106.086 29.8378C106.446 29.7938 106.694 29.9038 106.829 30.1678C106.986 30.4098 107.065 30.9048 107.065 31.6528C107.065 32.3129 106.93 32.8189 106.66 33.1709C106.39 33.5009 105.974 33.7209 105.411 33.8309C105.186 33.8529 104.928 33.8749 104.635 33.8969C104.342 33.9409 104.061 33.9629 103.791 33.9629Z" fill="#FF0000"/>
    <path d="M118.048 33.4016C116.27 33.4016 114.718 33.0606 113.39 32.3786C112.085 31.6966 111.072 30.7175 110.352 29.4415C109.632 28.1654 109.272 26.6584 109.272 24.9203C109.272 23.6222 109.475 22.4562 109.88 21.4222C110.285 20.3881 110.87 19.5081 111.635 18.7821C112.423 18.034 113.356 17.473 114.436 17.099C115.516 16.703 116.72 16.505 118.048 16.505C119.825 16.505 121.367 16.846 122.672 17.528C123.999 18.21 125.023 19.1781 125.743 20.4321C126.486 21.6862 126.857 23.1822 126.857 24.9203C126.857 26.2403 126.643 27.4174 126.216 28.4514C125.811 29.4855 125.226 30.3765 124.461 31.1245C123.696 31.8726 122.762 32.4446 121.659 32.8406C120.579 33.2146 119.375 33.4016 118.048 33.4016ZM118.048 29.6725C118.79 29.6725 119.432 29.4965 119.972 29.1445C120.512 28.7924 120.939 28.2754 121.254 27.5934C121.569 26.8894 121.727 25.9983 121.727 24.9203C121.727 23.3142 121.389 22.1372 120.714 21.3892C120.039 20.6191 119.15 20.2341 118.048 20.2341C117.328 20.2341 116.687 20.3991 116.124 20.7291C115.584 21.0591 115.156 21.5762 114.841 22.2802C114.549 22.9622 114.403 23.8423 114.403 24.9203C114.403 26.5264 114.74 27.7254 115.415 28.5174C116.09 29.2875 116.968 29.6725 118.048 29.6725Z" fill="#FF0000"/>
    <path d="M134.384 33.4019C133.529 33.4019 132.876 33.1709 132.426 32.7089C131.976 32.2469 131.751 31.5868 131.751 30.7288V21.1584L132.831 24.0956L124.866 13.0401C124.551 12.5781 124.416 12.0831 124.461 11.5551C124.506 11.005 124.731 10.532 125.136 10.136C125.541 9.74 126.115 9.54199 126.857 9.54199C127.397 9.54199 127.881 9.674 128.308 9.93801C128.758 10.202 129.186 10.62 129.591 11.1921L134.991 18.8154H133.911L139.312 11.1921C139.739 10.598 140.155 10.18 140.56 9.93801C140.988 9.674 141.483 9.54199 142.046 9.54199C142.766 9.54199 143.328 9.729 143.733 10.103C144.138 10.455 144.352 10.906 144.374 11.4561C144.397 11.9841 144.206 12.5341 143.801 13.1061L135.936 24.0956L136.983 21.1584V30.7288C136.983 32.5109 136.116 33.4019 134.384 33.4019Z" fill="#FF0000"/>
    <path d="M142.349 33.7979C141.494 33.7979 140.842 33.5669 140.392 33.1049C139.942 32.6429 139.717 31.9829 139.717 31.1248V21.5545L140.797 24.4916L132.831 13.4361C132.516 12.9741 132.381 12.4791 132.426 11.9511C132.471 11.4011 132.696 10.928 133.101 10.532C133.506 10.136 134.08 9.93801 134.823 9.93801C135.363 9.93801 135.846 10.07 136.274 10.334C136.724 10.598 137.151 11.0161 137.557 11.5881L142.957 19.2114H141.877L147.277 11.5881C147.705 10.994 148.121 10.576 148.526 10.334C148.953 10.07 149.448 9.93801 150.011 9.93801C150.731 9.93801 151.294 10.125 151.699 10.499C152.104 10.851 152.317 11.3021 152.34 11.8521C152.362 12.3801 152.171 12.9301 151.766 13.5021L143.902 24.4916L144.948 21.5545V31.1248C144.948 32.9069 144.082 33.7979 142.349 33.7979Z" fill="#FF0000"/>
    <path d="M176.932 33.8599C176.076 33.8599 175.424 33.6289 174.974 33.1669C174.524 32.7049 174.299 32.0449 174.299 31.1868V21.6164L175.379 24.5536L167.413 13.4981C167.098 13.0361 166.963 12.5411 167.008 12.0131C167.053 11.4631 167.278 10.99 167.683 10.594C168.088 10.198 168.662 10 169.405 10C169.945 10 170.429 10.132 170.856 10.396C171.306 10.66 171.734 11.078 172.139 11.6501L177.539 19.2734H176.459L181.859 11.6501C182.287 11.056 182.703 10.638 183.108 10.396C183.536 10.132 184.031 10 184.593 10C185.313 10 185.876 10.187 186.281 10.561C186.686 10.913 186.9 11.3641 186.922 11.9141C186.945 12.4421 186.753 12.9921 186.348 13.5641L178.484 24.5536L179.53 21.6164V31.1868C179.53 32.9689 178.664 33.8599 176.932 33.8599Z" fill="#FF0000"/>
    <path d="M172.932 40.8599C172.076 40.8599 171.424 40.6289 170.974 40.1669C170.524 39.7049 170.299 39.0449 170.299 38.1868V28.6164L171.379 31.5536L163.413 20.4981C163.098 20.0361 162.963 19.5411 163.008 19.0131C163.053 18.4631 163.278 17.99 163.683 17.594C164.088 17.198 164.662 17 165.405 17C165.945 17 166.429 17.132 166.856 17.396C167.306 17.66 167.734 18.078 168.139 18.6501L173.539 26.2734H172.459L177.859 18.6501C178.287 18.056 178.703 17.638 179.108 17.396C179.536 17.132 180.031 17 180.593 17C181.313 17 181.876 17.187 182.281 17.561C182.686 17.913 182.9 18.3641 182.922 18.9141C182.945 19.4421 182.753 19.9921 182.348 20.5641L174.484 31.5536L175.53 28.6164V38.1868C175.53 39.9689 174.664 40.8599 172.932 40.8599Z" fill="#008000"/>
    <path d="M183.932 28.8599C183.076 28.8599 182.424 28.6289 181.974 28.1669C181.524 27.7049 181.299 27.0449 181.299 26.1868V16.6164L182.379 19.5536L174.413 8.49814C174.098 8.03612 173.963 7.5411 174.008 7.01308C174.053 6.46306 174.278 5.99004 174.683 5.59402C175.088 5.19801 175.662 5 176.405 5C176.945 5 177.429 5.13201 177.856 5.39602C178.306 5.66003 178.734 6.07804 179.139 6.65006L184.539 14.2734H183.459L188.859 6.65006C189.287 6.05604 189.703 5.63802 190.108 5.39602C190.536 5.13201 191.031 5 191.593 5C192.313 5 192.876 5.18701 193.281 5.56102C193.686 5.91304 193.9 6.36405 193.922 6.91408C193.945 7.4421 193.753 7.99212 193.348 8.56414L185.484 19.5536L186.53 16.6164V26.1868C186.53 27.9689 185.664 28.8599 183.932 28.8599Z" fill="#FFFF00"/>
<ellipse cx="178.328" cy="32.0417" rx="4.33653" ry="5.54027" fill="transparent"/>

</symbol>
</svg>
