<svg width="115" height="131" viewBox="0 0 115 131" fill="none" xmlns="http://www.w3.org/2000/svg">
<rect x="1.5" y="1.5" width="113" height="128.5" fill="#FFC0CB"/>
<rect x="1.5" y="1.5" width="113" height="128.5" stroke="#FFC0CB"/>
<path d="M1 130V1H114V130H1Z" stroke="#FFC0CB"/>
<path d="M101.444 66C95.6814 85.7824 74.977 104.035 58.4443 109C41.3366 103.619 20.4886 85.657 15.4443 66C19.3356 46.2273 40.5395 28.9699 58.4443 23C78.0771 27.0455 95.9444 47.6539 101.444 66Z" fill="#FF0000"/>
<path d="M58.5 23V109M58.5 23C82.3353 32.3973 91.4663 42.1219 101.5 66M58.5 23C33.4544 34.9133 22.9065 43.9166 15 66M58.5 23L88.5 35L101.5 66M58.5 23L25 39L15 66M58.5 109C83.1089 97.9645 92.2675 88.361 101.5 66M58.5 109C33.4065 98.7092 25.8728 87.6946 15 66M58.5 109L90.5 95L101.5 66M58.5 109L26.5 95L15 66" stroke="black"/>
<path d="M81 54L87 58" stroke="black"/>
<path d="M81 67H88" stroke="black"/>
<path d="M81 54V66.4388V80.5L90 76.1735" stroke="black"/>
<path d="M74 51L67 58.9091V70.5091L74 80V65.2364" stroke="black"/>
<path d="M37.5 52L28 62L37.5 71.5L28 81" stroke="black"/>
<path d="M44 80.5L46 67.25M55 80.5L51.5 67.25M51.5 67.25L48 54L46 67.25M51.5 67.25H46" stroke="black"/>
</svg>
